<svg width="87" height="82" viewBox="0 0 87 82" fill="none" xmlns="http://www.w3.org/2000/svg">
<g opacity="0.5">
<path d="M48.3096 3.15997L44.2713 27.24L62.5183 30.0817L65.6591 11.1617L61.9948 4.65562L48.3096 3.15997Z" fill="#E9E9E9"/>
<path d="M66.407 10.4887L66.1078 10.1147L62.3687 5.02953L62.0696 4.65562C61.92 4.50605 61.7704 4.35649 61.5461 4.35649L48.9078 2.33736C48.3844 2.26257 47.7861 2.56171 47.6365 3.4591L45.2435 19.1634L44.1217 26.3426V26.5669C44.047 26.9408 44.3461 27.3148 44.7948 27.5391H44.8696C44.9444 27.5391 45.0191 27.6139 45.0939 27.6139L62.4435 30.3061C62.5183 30.3061 62.5931 30.3061 62.6678 30.3061H62.7426C63.1913 30.2313 63.64 29.9321 63.64 29.633V29.4087L64.7617 22.2295L66.4817 11.3113C66.5565 10.9374 66.5565 10.713 66.407 10.4887ZM65.0609 10.1895L61.3965 9.59127L61.9948 5.92692L65.0609 10.1895ZM45.1687 26.7165H45.0939C45.0191 26.6417 45.0191 26.5669 45.0191 26.4921L45.9913 20.1356L63.8644 22.9026L62.8922 29.2591C62.8922 29.3339 62.8174 29.4087 62.7426 29.4087H62.6678L45.1687 26.7165ZM46.0661 19.313L48.4591 3.60866C48.4591 3.53388 48.5339 3.23475 48.7583 3.23475L61.247 5.1791C61.247 5.25388 61.1722 5.25388 61.1722 5.32866L60.4244 10.4139L65.5096 11.1617C65.5844 11.1617 65.6591 11.1617 65.6591 11.1617L63.9391 22.08L46.0661 19.313Z" fill="#777777"/>
<path d="M51.7496 22.3791L50.6278 24.0243H50.5531L50.0296 22.08L49.207 22.0052L50.1044 24.3982L48.6087 26.4174L49.4313 26.4921L50.4783 24.9965H50.5531L51.0017 26.7165L51.8244 26.8661L51.0017 24.5478L52.5722 22.5287L51.7496 22.3791Z" fill="#FF2728"/>
<path d="M54.2922 22.7531L53.5444 22.6783L52.8713 27.0157L55.6383 27.4644L55.7131 26.9409L53.694 26.6418L54.2922 22.7531Z" fill="#FF2728"/>
<path d="M58.7043 25.7443C58.5548 25.5948 58.48 25.52 58.3304 25.4452C58.1808 25.3704 58.0313 25.2209 57.9565 25.1461C57.8069 25.0713 57.7321 24.9217 57.6574 24.847C57.5826 24.7722 57.5826 24.6226 57.5826 24.473C57.5826 24.3983 57.5826 24.3235 57.6574 24.2487C57.7321 24.1739 57.7321 24.0991 57.8069 24.0991C57.8817 24.0243 57.9565 24.0243 58.0313 24.0243C58.1061 24.0243 58.1808 23.9496 58.2556 24.0243C58.4052 24.0243 58.5548 24.0243 58.6295 24.0991C58.7043 24.0991 58.7791 24.1739 58.8539 24.1739C58.9287 24.1739 58.9287 24.2487 59.0035 24.2487L59.0782 24.3235C59.0782 24.3235 59.0782 24.3235 59.153 24.2487C59.153 24.2487 59.2278 24.1739 59.2278 24.0991C59.2278 24.0243 59.3026 24.0243 59.3774 23.9496C59.4521 23.8748 59.4521 23.8748 59.4521 23.8C59.3774 23.7252 59.2278 23.6504 59.0035 23.5757C58.8539 23.5009 58.6295 23.5009 58.48 23.4261C58.3304 23.4261 58.1061 23.4261 57.9565 23.4261C57.8069 23.4261 57.6574 23.5009 57.5078 23.5757C57.3582 23.6504 57.2835 23.8 57.1339 23.9496C57.0591 24.0991 56.9843 24.2487 56.9095 24.473C56.9095 24.6974 56.9095 24.847 56.9843 24.9965C57.0591 25.1461 57.1339 25.2957 57.2834 25.4452C57.433 25.5948 57.5078 25.6696 57.6574 25.8191C57.8069 25.9687 57.9565 26.0435 58.0313 26.1183C58.1808 26.193 58.2556 26.3426 58.3304 26.4174C58.4052 26.4922 58.4052 26.6417 58.4052 26.7913C58.4052 27.0157 58.2556 27.1652 58.1061 27.24C57.9565 27.3148 57.7321 27.3896 57.5078 27.3148C57.433 27.3148 57.3582 27.3148 57.2834 27.24C57.2087 27.1652 57.1339 27.1652 56.9843 27.1652C56.9095 27.0904 56.8348 27.0904 56.76 27.0157C56.6852 26.9409 56.6104 26.9409 56.5356 26.8661L56.3113 27.3896C56.3861 27.4643 56.4608 27.5391 56.5356 27.6139C56.6104 27.6887 56.6852 27.6887 56.8348 27.7635C56.9095 27.8383 57.0591 27.8383 57.1339 27.8383C57.2087 27.8383 57.3582 27.913 57.433 27.913C57.6574 27.913 57.8817 27.913 58.0313 27.913C58.1808 27.8383 58.4052 27.8383 58.48 27.6887C58.6295 27.6139 58.7043 27.4643 58.8539 27.3148C59.0034 27.1652 59.0035 27.0157 59.0035 26.8661C59.0035 26.6417 59.0035 26.4174 58.9287 26.2678C58.8539 25.9687 58.7791 25.8939 58.7043 25.7443Z" fill="#FF2728"/>
<path d="M54.8156 9.06785L49.5809 8.24524L49.2817 9.96524L49.1322 10.8626L48.9826 11.76L48.833 12.6574L48.6835 13.5548L48.5339 14.4522V15.2L48.3843 16.0974L48.0852 17.8174L52.4226 18.4905L53.32 18.64L62.4435 20.0609L62.7426 18.3409L62.8922 17.4435L63.0417 16.5461L63.1913 15.6487L63.3409 14.7513L63.4904 13.8539L63.7896 12.1339L54.6661 10.7131L54.8156 9.06785ZM50.0296 11.0122L53.5443 11.5357L53.3948 12.4331L49.88 11.9096L50.0296 11.0122ZM49.8052 12.7322L53.32 13.2557L53.1704 14.1531L49.6556 13.6296L49.8052 12.7322ZM49.5061 14.4522L53.0209 14.9757L52.8713 15.8731L49.3565 15.3496L49.5061 14.4522ZM52.5722 17.6678L49.0574 17.1444L49.2069 16.247L52.7217 16.7705L52.5722 17.6678ZM61.7704 19.0139L53.4696 17.7426L53.6191 16.8452L61.8452 18.1913L61.7704 19.0139ZM61.9948 17.2939L53.6939 16.0226L53.8435 15.1252L62.1443 16.3965L61.9948 17.2939ZM62.2939 15.5739L53.993 14.3026L54.1426 13.4052L62.4435 14.6765L62.2939 15.5739ZM62.6678 12.9565L62.5182 13.8539L54.2174 12.5826L54.3669 11.6852L62.6678 12.9565ZM50.1791 10.1148L50.3287 9.21741L53.8435 9.74089L53.6939 10.6383L50.1791 10.1148Z" fill="#777777"/>
</g>
<g opacity="0.5">
<path d="M14.5826 6.3009L22.9582 29.2592L39.7095 22.9774L33.2035 4.95481L26.9217 0.991333L14.5826 6.3009Z" fill="#E9E9E9"/>
<path d="M33.6522 3.98257L30.3618 2.48692L27.52 1.21562L27.0713 0.991268C26.847 0.916485 26.6226 0.916485 26.4731 0.991268L14.5078 5.47822C13.9844 5.62779 13.6105 6.22605 13.9096 7.04866L19.4435 21.9304L21.9861 28.7356L22.0609 28.96C22.2105 29.3339 22.6591 29.4834 23.1078 29.4834H23.1826C23.2574 29.4834 23.3322 29.4834 23.407 29.4087L39.9339 23.2017C40.0087 23.2017 40.0835 23.1269 40.1583 23.1269C40.1583 23.1269 40.1583 23.1269 40.2331 23.0521C40.607 22.8278 40.8313 22.3043 40.6818 22.0052L40.607 21.7808L38.0644 14.9756L34.1757 4.58083C34.0261 4.2817 33.8765 4.05735 33.6522 3.98257ZM32.3809 4.35648L28.8661 5.62779L27.5948 2.11301L29.9878 3.23475L32.3809 4.35648ZM14.7322 6.22605L26.5478 1.81388C26.5478 1.88866 26.5478 1.96344 26.5478 1.96344L28.3426 6.74953L33.1287 4.95475C33.2035 4.95475 33.2035 4.87996 33.2783 4.87996L35.2226 10.1147L30.5861 8.1704C30.5113 8.09562 30.3618 8.09562 30.2122 8.1704C30.1374 8.24518 29.9878 8.31996 29.9878 8.39475L27.5948 14.3026L24.9026 13.1061C24.6783 13.0313 24.4539 13.1061 24.3044 13.2556L19.967 21.033L14.5826 6.59996C14.6574 6.59996 14.5826 6.30083 14.7322 6.22605ZM23.1078 28.5113H23.0331C22.9583 28.5113 22.8835 28.4365 22.8835 28.3617L20.64 22.3791L37.5409 16.0226L39.7844 22.0052C39.7844 22.08 39.7844 22.1547 39.7096 22.2295L39.6348 22.3043L23.1078 28.5113ZM21.0139 21.3321L25.0522 14.153L30.8852 16.8452C31.1096 16.92 31.3339 16.8452 31.4835 16.6208C31.6331 16.3965 31.4835 16.1721 31.2591 16.0226L28.567 14.7513L30.8105 9.21735L35.8209 11.3113L37.3165 15.2747L21.0139 21.3321Z" fill="#777777"/>
<path d="M26.6974 25.0713C26.7722 25.2956 26.7722 25.4452 26.6226 25.52C26.4731 25.5948 26.3983 25.7443 26.1739 25.8191C26.0991 25.8191 26.0244 25.8939 25.8748 25.8939C25.8 25.8939 25.6504 25.8939 25.5757 25.8939C25.5009 25.8939 25.4261 25.8939 25.3513 25.8939C25.2765 25.8939 25.2017 25.8939 25.127 25.8939L25.0522 26.4174C25.127 26.4174 25.2765 26.4922 25.3513 26.4922C25.5009 26.4922 25.5757 26.4922 25.7252 26.4922C25.8748 26.4922 25.9496 26.4922 26.0991 26.4174C26.2487 26.3426 26.3235 26.3426 26.3983 26.3426C26.5478 26.2678 26.6974 26.193 26.847 26.1182C26.9965 26.0435 27.0713 25.8939 27.2209 25.8191C27.3704 25.7443 27.3704 25.52 27.3704 25.3704C27.3704 25.2209 27.3704 24.9965 27.2957 24.8469L26.0991 21.6313L25.4261 21.8556L26.6974 25.0713Z" fill="#FF2728"/>
<path d="M29.5391 20.8087C29.3896 20.7339 29.1652 20.7339 29.0157 20.7339C28.7913 20.7339 28.6417 20.8087 28.4922 20.8087L27.2957 21.2574L28.8661 25.4452L29.5391 25.2208L28.9409 23.7252L29.4644 23.5008C29.6887 23.4261 29.8383 23.2765 30.0626 23.2017C30.2122 23.0521 30.3617 22.9026 30.4365 22.753C30.5113 22.6035 30.5861 22.3791 30.5861 22.2295C30.5861 22.0052 30.5861 21.8556 30.5113 21.6313C30.4365 21.4069 30.3617 21.2574 30.2122 21.1078C29.8383 20.9582 29.6887 20.8835 29.5391 20.8087ZM29.7635 22.3043C29.7635 22.4539 29.7635 22.5287 29.6887 22.6035C29.6139 22.6782 29.6139 22.753 29.5391 22.8278C29.4643 22.9026 29.3896 22.9026 29.3148 22.9774L28.7165 23.2017L28.1183 21.5565L28.6417 21.3321C28.7913 21.2574 28.9409 21.2574 29.0904 21.2574C29.24 21.2574 29.3148 21.3321 29.3896 21.3321C29.4643 21.4069 29.5391 21.4817 29.6139 21.5565C29.6887 21.6313 29.6887 21.7061 29.7635 21.7808C29.7635 22.0052 29.7635 22.1548 29.7635 22.3043Z" fill="#FF2728"/>
<path d="M33.2035 21.8556L33.8765 21.5565L34.2504 22.6034C34.2504 22.6782 34.1757 22.6782 34.1757 22.753C34.1009 22.8278 34.0261 22.8278 34.0261 22.9026C33.9513 22.9774 33.8765 22.9774 33.8017 22.9774C33.727 22.9774 33.6522 23.0521 33.6522 23.0521C33.5026 23.1269 33.3531 23.1269 33.2035 23.1269C33.0539 23.1269 32.9044 23.0521 32.7548 22.9774C32.6052 22.9026 32.4557 22.753 32.3061 22.5287C32.1565 22.3043 32.0817 22.08 31.9322 21.8556C31.8574 21.5565 31.7826 21.3321 31.7826 21.1078C31.7826 20.8834 31.7826 20.6591 31.8574 20.5095C31.9322 20.36 32.007 20.2104 32.0817 20.1356C32.1565 20.0608 32.3061 19.986 32.4557 19.9113C32.6052 19.8365 32.68 19.8365 32.8296 19.8365C32.9791 19.8365 33.1287 19.9113 33.2035 19.986L33.5026 19.3878C33.2783 19.313 33.0539 19.2382 32.8296 19.2382C32.6052 19.2382 32.3809 19.313 32.1565 19.3878C31.9322 19.4626 31.7078 19.6121 31.5583 19.7617C31.4087 19.9113 31.2591 20.1356 31.1844 20.36C31.1096 20.5843 31.0348 20.8834 31.0348 21.1826C31.0348 21.4817 31.1096 21.7808 31.2591 22.1547C31.4087 22.5287 31.5583 22.8278 31.7078 23.0521C31.9322 23.2765 32.0817 23.426 32.3061 23.5756C32.5304 23.7252 32.7548 23.7252 32.9791 23.8C33.2035 23.8747 33.5026 23.8 33.727 23.6504C33.8765 23.5756 33.9513 23.5756 34.1009 23.5008C34.2504 23.426 34.3252 23.3513 34.4 23.2765C34.4748 23.2017 34.6244 23.0521 34.6991 22.9774C34.7739 22.9026 34.8487 22.753 34.9235 22.6034L34.3252 20.9582L32.9791 21.4817L33.2035 21.8556Z" fill="#FF2728"/>
<path d="M22.2852 13.6296C23.5565 13.1809 24.2295 11.76 23.706 10.4887C23.2573 9.21739 21.8365 8.54435 20.5652 9.06783C19.2939 9.51652 18.6208 10.9374 19.1443 12.2087C19.593 13.48 21.0139 14.0783 22.2852 13.6296ZM20.8643 9.81565C21.6869 9.51652 22.5843 9.89044 22.8834 10.713C23.1826 11.5357 22.8087 12.433 21.986 12.7322C21.1634 13.0313 20.266 12.6574 19.9669 11.8348C19.593 11.087 20.0417 10.1148 20.8643 9.81565Z" fill="#777777"/>
</g>
<g opacity="0.5">
<path d="M70.2209 22.5287L60.3495 44.8887L77.4 52.1426L85.1774 34.5687L83.1582 27.3896L70.2209 22.5287Z" fill="#E9E9E9"/>
<path d="M85.9252 34.12L85.7756 33.6713L83.4573 27.8383L83.3078 27.3896C83.233 27.1652 83.0834 27.0156 82.8591 26.9409L71.0434 21.9304C70.5947 21.7061 69.9217 21.8556 69.5478 22.6783L63.3408 37.3356L60.4991 44.0661L60.4243 44.2904C60.2747 44.6643 60.4991 45.113 60.873 45.4122C60.873 45.4122 60.873 45.4122 60.9478 45.4869C61.0225 45.5617 61.0973 45.5617 61.0973 45.5617L77.3252 52.5165C77.3999 52.5165 77.4747 52.5913 77.5495 52.5913H77.6243C78.073 52.6661 78.5217 52.4417 78.6712 52.1426L78.746 51.9183L81.5878 45.1878L85.9252 35.0174C85.9999 34.6435 86.0747 34.3443 85.9252 34.12ZM84.7286 33.5217L81.2886 32.1009L82.7095 28.6609L84.7286 33.5217ZM61.3217 44.5896C61.1721 44.5148 61.1721 44.3652 61.2469 44.2904L63.7895 38.3826L80.3912 45.4869L77.8486 51.3948C77.8486 51.4696 77.7739 51.5443 77.6991 51.5443H77.6243L61.3217 44.5896ZM64.0886 37.6348L70.2956 22.9774C70.3704 22.9026 70.4452 22.6035 70.6695 22.6783L82.2608 27.6139C82.2608 27.6887 82.186 27.6887 82.186 27.7635L80.1669 32.4748L84.8782 34.4939C84.953 34.4939 84.953 34.4939 85.0278 34.5687L80.6904 44.7391L64.0886 37.6348Z" fill="#777777"/>
<path d="M68.9495 42.7948C68.8747 42.5704 68.7251 42.2713 68.5008 42.047C68.2765 41.8226 67.9773 41.673 67.6782 41.5235L66.4817 41L64.6869 45.113L66.2573 45.7861C66.3321 45.7861 66.4069 45.8609 66.4817 45.8609C66.6312 45.8609 66.706 45.9357 66.8556 45.9357C67.0052 45.9357 67.1547 45.9357 67.3791 45.9357C67.5286 45.9357 67.753 45.8609 67.9025 45.7113C68.0521 45.5617 68.2765 45.4122 68.426 45.2626C68.5756 45.0383 68.7251 44.8139 68.8747 44.44C68.9495 44.2157 69.0243 43.9165 69.0243 43.6922C69.0991 43.3183 69.0991 43.0191 68.9495 42.7948ZM67.3791 45.1878C67.0799 45.4122 66.706 45.4122 66.1825 45.1878L65.5095 44.8887L66.8556 41.8226L67.2295 41.9722C67.5286 42.1217 67.753 42.2713 67.9773 42.4209C68.1269 42.5704 68.2765 42.7948 68.2765 42.9443C68.3512 43.0939 68.3512 43.3183 68.3512 43.4678C68.3512 43.6174 68.2765 43.8417 68.2017 43.9913C67.9773 44.5896 67.6782 44.9635 67.3791 45.1878Z" fill="#FF2728"/>
<path d="M73.0626 44.3652C72.9878 44.1408 72.8382 43.9165 72.6887 43.7669C72.5391 43.6173 72.3147 43.4678 72.0904 43.3182C71.8661 43.2434 71.5669 43.1686 71.3426 43.1686C71.1182 43.1686 70.8939 43.2434 70.6695 43.3182C70.4452 43.393 70.2208 43.6173 69.9965 43.8417C69.7721 44.066 69.6226 44.3652 69.473 44.6643C69.3234 45.0382 69.2487 45.3373 69.2487 45.6365C69.2487 45.9356 69.2487 46.2347 69.3234 46.4591C69.3982 46.6834 69.5478 46.9078 69.6974 47.0573C69.8469 47.2069 70.0713 47.3565 70.2956 47.506C70.52 47.5808 70.8191 47.6556 71.0434 47.6556C71.2678 47.6556 71.4921 47.5808 71.7165 47.506C71.9408 47.4312 72.1652 47.2069 72.3895 46.9826C72.6139 46.7582 72.7634 46.4591 72.913 46.1599C73.0626 45.786 73.1374 45.4869 73.1374 45.1878C73.2121 44.8886 73.1374 44.6643 73.0626 44.3652ZM71.866 46.5339C71.7165 46.6834 71.5669 46.833 71.4174 46.9078C71.2678 46.9826 71.1182 47.0573 70.9687 47.0573C70.8191 47.0573 70.6695 47.0573 70.52 46.9826C70.3704 46.9078 70.2956 46.833 70.1461 46.7582C70.0713 46.6834 69.9965 46.5339 69.9217 46.3843C69.8469 46.2347 69.8469 46.0104 69.9217 45.786C69.9217 45.5617 69.9965 45.3373 70.1461 45.0382C70.2956 44.7391 70.3704 44.5147 70.52 44.3652C70.6695 44.2156 70.8191 44.066 70.9687 43.9912C71.1182 43.9165 71.2678 43.8417 71.4174 43.8417C71.5669 43.8417 71.7165 43.8417 71.866 43.9165C72.0156 43.9912 72.0904 44.066 72.24 44.1408C72.3147 44.2156 72.3895 44.3652 72.4643 44.5147C72.5391 44.6643 72.5391 44.8886 72.4643 45.113C72.3895 45.3373 72.3895 45.5617 72.24 45.8608C72.0904 46.1599 72.0156 46.3843 71.866 46.5339Z" fill="#FF2728"/>
<path d="M75.306 45.7113C75.4556 45.6365 75.6051 45.5617 75.7547 45.5617C75.9043 45.5617 76.0538 45.5617 76.2034 45.6365C76.353 45.7113 76.4278 45.786 76.5025 45.8608C76.5773 45.9356 76.6521 46.0852 76.7269 46.2347L77.3251 46.0104C77.2504 45.786 77.1008 45.6365 76.9512 45.4869C76.8017 45.3374 76.5773 45.1878 76.353 45.113C76.1286 45.0382 75.9043 44.9634 75.6051 44.9634C75.3808 44.9634 75.1564 45.0382 74.9321 45.113C74.7077 45.1878 74.4834 45.4121 74.2591 45.6365C74.0347 45.8608 73.8851 46.16 73.7356 46.4591C73.586 46.833 73.5112 47.1321 73.5112 47.4313C73.5112 47.7304 73.5112 48.0295 73.586 48.2539C73.6608 48.4782 73.8104 48.7026 73.9599 48.8521C74.1095 49.0017 74.3338 49.1513 74.5582 49.3008C74.7825 49.3756 75.0069 49.4504 75.2312 49.4504C75.4556 49.4504 75.6799 49.4504 75.9043 49.3008L75.6051 48.7026C75.4556 48.7774 75.306 48.7774 75.1564 48.7774C75.0069 48.7774 74.8573 48.7774 74.7825 48.7026C74.633 48.6278 74.5582 48.553 74.4086 48.4782C74.3338 48.4034 74.2591 48.2539 74.1843 48.1043C74.1095 47.9547 74.1095 47.7304 74.1843 47.506C74.1843 47.2817 74.2591 47.0574 74.4086 46.7582C74.5582 46.4591 74.633 46.2347 74.7825 46.0852C74.9321 45.9356 75.1564 45.8608 75.306 45.7113Z" fill="#FF2728"/>
<path d="M70.4451 28.3617L72.913 29.4087C73.1373 29.4834 73.3617 29.4087 73.5112 29.1843C73.586 28.96 73.5112 28.7356 73.2869 28.586L70.8191 27.5391C70.5947 27.4643 70.3704 27.5391 70.2208 27.7634C70.146 27.9878 70.2208 28.2869 70.4451 28.3617Z" fill="#777777"/>
<path d="M69.5478 30.3809L73.2121 31.9513C73.4365 32.0261 73.6608 31.9513 73.8104 31.7269C73.96 31.5026 73.8104 31.2783 73.5861 31.1287L69.9217 29.5583C69.6974 29.4835 69.473 29.5583 69.3234 29.7826C69.1739 30.007 69.3235 30.3061 69.5478 30.3809Z" fill="#777777"/>
<path d="M74.8574 32.6243C74.9322 32.6991 75.0817 32.6991 75.2313 32.6243C75.3061 32.5496 75.4557 32.4748 75.4557 32.4C75.5304 32.3252 75.5304 32.1756 75.4557 32.0261C75.3809 31.8017 75.0817 31.7269 74.8574 31.8017C74.7826 31.8765 74.6331 31.9513 74.6331 32.0261C74.5583 32.1009 74.5583 32.2504 74.6331 32.4C74.6331 32.5496 74.7826 32.6243 74.8574 32.6243Z" fill="#777777"/>
<path d="M76.5026 33.3721L79.7182 34.7182C79.9426 34.793 80.1669 34.7182 80.3165 34.4939C80.466 34.2695 80.3165 34.0452 80.0921 33.8956L76.8765 32.5495C76.6521 32.4747 76.4278 32.5495 76.2782 32.7739C76.1287 32.9982 76.2782 33.2226 76.5026 33.3721Z" fill="#777777"/>
<path d="M67.0052 35.6904C66.9304 35.7652 66.7809 35.84 66.7809 35.9147C66.7061 35.9895 66.7061 36.1391 66.7809 36.2887C66.8557 36.3634 66.9304 36.513 67.0052 36.513C67.08 36.513 67.2296 36.5878 67.3791 36.513C67.4539 36.4382 67.6035 36.3634 67.6035 36.2887C67.6783 36.2139 67.6783 36.0643 67.6035 35.9147C67.4539 35.6904 67.2296 35.6156 67.0052 35.6904Z" fill="#777777"/>
<path d="M72.1651 37.7843L68.9495 36.4383C68.7251 36.3635 68.5008 36.4383 68.3512 36.6626C68.2764 36.887 68.3512 37.1113 68.5756 37.2609L71.7912 38.607C72.0156 38.6817 72.2399 38.607 72.3895 38.3826C72.5391 38.0835 72.3895 37.8591 72.1651 37.7843Z" fill="#777777"/>
<path d="M82.4852 34.9426L81.6626 34.5687C81.4382 34.4939 81.2139 34.5687 81.0643 34.793C80.9895 35.0174 81.0643 35.2417 81.2886 35.3913L82.1113 35.7652C82.3356 35.84 82.5599 35.7652 82.7095 35.5409C82.8591 35.3165 82.7095 35.0174 82.4852 34.9426Z" fill="#777777"/>
<path d="M68.7252 32.4L77.6243 36.2139C77.8486 36.2886 78.073 36.2139 78.2226 35.9895C78.3721 35.7652 78.2226 35.5408 77.9982 35.3913L69.0991 31.6521C68.8747 31.5773 68.6504 31.6521 68.5008 31.8765C68.3513 32.1008 68.5008 32.3252 68.7252 32.4Z" fill="#777777"/>
<path d="M81.6625 36.9617L79.1947 35.9148C78.9704 35.84 78.746 35.9148 78.5965 36.1391C78.5217 36.3635 78.5965 36.5878 78.8208 36.7374L81.2886 37.7843C81.513 37.8591 81.7373 37.7843 81.8869 37.56C81.9617 37.3356 81.8869 37.0365 81.6625 36.9617Z" fill="#777777"/>
<path d="M67.8278 34.4939L69.473 35.1669C69.6973 35.2417 69.9217 35.1669 70.0712 34.9426C70.146 34.7183 70.0712 34.4939 69.8469 34.3443L68.2017 33.6713C67.9773 33.5965 67.753 33.6713 67.6034 33.8956C67.5286 34.12 67.6034 34.3443 67.8278 34.4939Z" fill="#777777"/>
<path d="M75.5304 36.7374L71.4174 35.0174C71.193 34.9426 70.9687 35.0174 70.8191 35.2417C70.6696 35.4661 70.8191 35.6904 71.0435 35.84L75.0817 37.56C75.3061 37.6348 75.5304 37.56 75.68 37.3356C75.8295 37.1113 75.7548 36.8869 75.5304 36.7374Z" fill="#777777"/>
<path d="M80.7652 38.9809L77.1008 37.4104C76.8765 37.3356 76.6522 37.4104 76.5026 37.6348C76.4278 37.8591 76.5026 38.0835 76.7269 38.233L80.3913 39.8035C80.6156 39.8783 80.84 39.8035 80.9895 39.5791C81.0643 39.3548 80.9895 39.1304 80.7652 38.9809Z" fill="#777777"/>
</g>
<g opacity="0.5">
<path d="M0.972168 33.7461L12.9374 55.2835L28.4922 46.3843L19.0696 29.4835L12.2643 26.567L0.972168 33.7461Z" fill="#E9E9E9"/>
<path d="M17.3496 38.9061L15.6296 39.8783C15.48 39.9531 15.4052 40.1774 15.48 40.327C15.5548 40.4765 15.7792 40.5513 15.9287 40.4765L17.6487 39.5044C17.7983 39.4296 17.8731 39.2052 17.7983 39.0557C17.7235 38.8313 17.4992 38.8313 17.3496 38.9061Z" fill="#777777"/>
<path d="M19.2939 28.5113L18.4713 28.2869L12.7878 26.7165L12.3391 26.5669C12.1148 26.4921 11.8904 26.5669 11.7409 26.6417L0.523469 32.9982C0.0747731 33.2226 -0.224357 33.8956 0.224338 34.6434L8.07651 48.4782L11.6661 54.8348L11.7409 54.9843C11.8904 55.2834 12.4139 55.433 12.8626 55.2834H12.9374C13.0122 55.2834 13.0869 55.2087 13.1617 55.2087L28.4922 46.4591C28.5669 46.4591 28.6417 46.3843 28.6417 46.3095C28.6417 46.3095 28.6417 46.3095 28.7165 46.2348C29.0156 45.9356 29.1652 45.4121 29.0156 45.113L28.9409 44.9634L25.3513 38.6069L19.8922 29.0348C19.6678 28.7356 19.5182 28.5861 19.2939 28.5113ZM13.0122 27.6887L18.0974 29.1095L14.8069 30.9043L13.0122 27.6887ZM12.7878 54.4608H12.713C12.6383 54.4608 12.5635 54.4608 12.4887 54.3861L9.34782 48.8521L25.0522 39.8782L28.193 45.4121C28.2678 45.4869 28.193 45.5617 28.193 45.6365L28.1182 45.7113L12.7878 54.4608ZM8.89912 48.0295L0.972164 34.1948C0.897382 34.12 0.747816 33.8208 0.972164 33.7461L11.8904 27.4643C11.8904 27.5391 11.8904 27.5391 11.9652 27.6139L14.5078 32.0261L18.92 29.4834C18.9948 29.4834 18.9948 29.4087 19.0696 29.4087L24.5287 38.9808L8.89912 48.0295Z" fill="#777777"/>
<path d="M12.7878 48.8522L13.9095 48.254L15.8539 51.694L16.5269 51.32L14.5078 47.88L15.7043 47.207L15.48 46.7583L12.4886 48.4783L12.7878 48.8522Z" fill="#FF2728"/>
<path d="M18.3217 45.1878L18.4713 47.1322L18.3965 47.207L16.8261 46.0104L16.0782 46.3844L18.2469 47.8052L18.3965 50.1983L19.0696 49.8244L18.92 47.9548H18.9948L20.4156 49.0765L21.1635 48.6278L19.0696 47.3565L18.9948 44.7391L18.3217 45.1878Z" fill="#FF2728"/>
<path d="M19.8922 44.8139L21.0139 44.1408L23.0331 47.5808L23.6313 47.2069L21.687 43.7669L22.8087 43.1687L22.5844 42.72L19.6678 44.3652L19.8922 44.8139Z" fill="#FF2728"/>
<path d="M5.30956 37.4104L7.62782 36.0643C7.85217 35.9148 7.92695 35.6904 7.77738 35.4661C7.62782 35.2417 7.40347 35.167 7.17912 35.3165L4.86086 36.5878C4.63651 36.7374 4.56173 36.9617 4.7113 37.1861C4.86086 37.4104 5.08521 37.4852 5.30956 37.4104Z" fill="#777777"/>
<path d="M6.43126 39.28L9.87126 37.3356C10.0956 37.1861 10.1704 36.9617 10.0208 36.7374C9.87126 36.513 9.64691 36.4383 9.42257 36.5878L5.98257 38.5322C5.75822 38.6817 5.68344 38.9061 5.833 39.1304C5.90778 39.3548 6.20691 39.4296 6.43126 39.28Z" fill="#777777"/>
<path d="M11.367 36.4383C11.4417 36.3635 11.5165 36.2887 11.5913 36.1391C11.5913 36.0643 11.5913 35.9148 11.5165 35.84C11.4417 35.7652 11.367 35.6904 11.2174 35.6156C10.993 35.5409 10.7687 35.6904 10.6939 35.9148C10.6939 36.0643 10.6939 36.1391 10.7687 36.2887C10.8435 36.4383 10.9183 36.4383 11.0678 36.513C11.1426 36.513 11.2922 36.513 11.367 36.4383Z" fill="#777777"/>
<path d="M12.9374 35.5409L16.0035 33.8209C16.2278 33.6713 16.3026 33.447 16.153 33.2226C16.0035 32.9983 15.7791 32.9235 15.5548 33.0731L12.4887 34.7931C12.2643 34.9426 12.1895 35.167 12.3391 35.3913C12.4139 35.6157 12.713 35.6904 12.9374 35.5409Z" fill="#777777"/>
<path d="M9.04871 44.5148C9.04871 44.6643 9.04871 44.7391 9.12349 44.8139C9.19827 44.8887 9.27305 44.9635 9.42262 45.0383C9.4974 45.0383 9.64697 45.0383 9.72175 44.9635C9.79653 44.8887 9.87131 44.8139 9.9461 44.6643C9.9461 44.5896 9.9461 44.44 9.87131 44.3652C9.79653 44.2904 9.72175 44.2157 9.57218 44.1409C9.34784 44.1409 9.12349 44.2904 9.04871 44.5148Z" fill="#777777"/>
<path d="M13.8348 41.673L10.7687 43.393C10.5444 43.5426 10.4696 43.7669 10.6191 43.9913C10.7687 44.2156 10.993 44.2904 11.2174 44.1409L14.2835 42.4209C14.5078 42.2713 14.5826 42.0469 14.433 41.8226C14.3583 41.5982 14.0591 41.5235 13.8348 41.673Z" fill="#777777"/>
<path d="M7.47826 41.2243L15.9287 36.4382C16.153 36.2887 16.2278 36.0643 16.0783 35.84C15.9287 35.6156 15.7043 35.5409 15.48 35.6904L7.02956 40.4017C6.80522 40.5513 6.73043 40.7756 6.88 41C7.02956 41.2243 7.25391 41.2991 7.47826 41.2243Z" fill="#777777"/>
<path d="M8.60002 43.0939L10.0957 42.1965C10.32 42.0469 10.3948 41.8226 10.2452 41.5982C10.0957 41.3739 9.87133 41.2991 9.64698 41.4487L8.15133 42.3461C7.92698 42.4956 7.8522 42.72 8.00176 42.9443C8.15133 43.1687 8.37568 43.2434 8.60002 43.0939Z" fill="#777777"/>
<path d="M15.0313 38.3826L11.2174 40.6261C10.993 40.7756 10.9182 41 11.0678 41.2243C11.2174 41.4487 11.4417 41.5235 11.6661 41.3739L15.48 39.2052C15.7043 39.0556 15.7791 38.8313 15.6295 38.6069C15.5548 38.3826 15.2556 38.3078 15.0313 38.3826Z" fill="#777777"/>
<path d="M20.0417 35.5409L16.6017 37.4852C16.3774 37.6348 16.3026 37.8591 16.4521 38.0835C16.6017 38.3078 16.8261 38.3826 17.0504 38.2331L20.4904 36.2887C20.7147 36.1391 20.7895 35.9148 20.64 35.6904C20.4904 35.4661 20.2661 35.4661 20.0417 35.5409Z" fill="#777777"/>
</g>
<path d="M21.2382 64.2574V64.3322C21.2382 65.08 21.8365 65.6035 22.5095 65.6035H22.5843C21.8365 65.6035 21.2382 65.0052 21.2382 64.2574Z" fill="#777777"/>
<path d="M64.313 39.1304V80.4852H25.0521V25.6696H51.4504" fill="#E9E9E9"/>
<path d="M64.8365 37.1113L52.3478 24.5478C52.1983 24.3983 52.0487 24.3235 51.8991 24.3235H24.4539C24.08 24.3235 23.7809 24.6226 23.7809 24.9965V52.6661H25.0522V25.6696H51.4505V37.2609C51.4505 37.6348 51.7496 37.9339 52.1235 37.9339H63.7148V79.8122H25.0522V65.6035H23.7809V80.4104C23.7809 80.7844 24.08 81.0835 24.4539 81.0835H64.3878C64.7617 81.0835 65.0609 80.7844 65.0609 80.4104V37.56C64.9861 37.3357 64.9113 37.1861 64.8365 37.1113ZM52.7965 36.5878V26.8661L62.5931 36.6626H52.7965V36.5878Z" fill="#777777"/>
<path d="M64.313 80.4852C70.0126 80.4852 74.633 75.8648 74.633 70.1652C74.633 64.4656 70.0126 59.8452 64.313 59.8452C58.6134 59.8452 53.993 64.4656 53.993 70.1652C53.993 75.8648 58.6134 80.4852 64.313 80.4852Z" fill="#E9E9E9"/>
<path d="M64.313 81.0835C58.2557 81.0835 53.32 76.1479 53.32 70.0905C53.32 64.0331 58.2557 59.0974 64.313 59.0974C70.3704 59.0974 75.3061 64.0331 75.3061 70.0905C75.3061 76.2226 70.3704 81.0835 64.313 81.0835ZM64.313 60.4435C58.9287 60.4435 54.5913 64.7809 54.5913 70.1652C54.5913 75.5496 58.9287 79.887 64.313 79.887C69.6974 79.887 74.0348 75.5496 74.0348 70.1652C74.0348 64.7809 69.6974 60.4435 64.313 60.4435Z" fill="#777777"/>
<path d="M67.9774 69.6418H64.8365V66.5009C64.8365 66.2018 64.6121 65.9774 64.313 65.9774C64.0139 65.9774 63.7895 66.2018 63.7895 66.5009V69.6418H60.6487C60.3495 69.6418 60.1252 69.8661 60.1252 70.1652C60.1252 70.4644 60.3495 70.6887 60.6487 70.6887H63.7895V73.8296C63.7895 74.1287 64.0139 74.3531 64.313 74.3531C64.6121 74.3531 64.8365 74.1287 64.8365 73.8296V70.6887H67.9774C68.2765 70.6887 68.5008 70.4644 68.5008 70.1652C68.5008 69.8661 68.2765 69.6418 67.9774 69.6418Z" fill="#777777"/>
<path d="M45.6174 65.6035H45.6922C46.44 65.6035 46.9635 65.0053 46.9635 64.3322V64.2574C46.9635 65.0053 46.3652 65.6035 45.6174 65.6035Z" fill="#777777"/>
<path d="M45.6173 52.7409H25.0521H23.7808H22.5843C21.8365 52.7409 21.2382 53.3392 21.2382 54.087V64.1826C21.2382 64.9305 21.8365 65.5287 22.5843 65.5287H23.7808H25.0521H45.5426C46.2904 65.5287 46.8887 64.9305 46.8887 64.1826V54.087C46.9634 53.3392 46.3652 52.7409 45.6173 52.7409ZM28.7913 60.294H27.2208V61.9392H26.1739V56.4053C27.0713 56.4053 27.8939 56.4053 28.7913 56.4053C31.4834 56.4053 31.5582 60.294 28.7913 60.294ZM34.1008 61.9392C33.4278 61.9392 32.6052 61.9392 31.9321 61.9392V56.4053C32.6052 56.4053 33.4278 56.4053 34.1008 56.4053C35.9704 56.4053 36.8678 57.7513 36.8678 59.0974C36.8678 60.5183 35.9704 61.9392 34.1008 61.9392ZM42.0278 57.3774H39.1113V58.8731H41.8782V59.8453H39.1113V61.8644H38.0643V56.3305H42.0278V57.3774Z" fill="#FF2728"/>
<path d="M28.7913 57.3774H27.2208V59.3217H28.7913C30.1373 59.3217 30.1373 57.3774 28.7913 57.3774Z" fill="#FF2728"/>
<path d="M34.1009 57.3774H32.9791V60.8922H34.1009C35.3722 60.8922 35.8957 59.9948 35.8209 59.0974C35.7461 58.2748 35.2974 57.3774 34.1009 57.3774Z" fill="#FF2728"/>
</svg>
