<svg width="63" height="86" viewBox="0 0 63 86" fill="none" xmlns="http://www.w3.org/2000/svg">
<path d="M42.7737 66.65H9.05261V85.4342H42.7737V66.65Z" fill="#FF2728"/>
<path d="M61.5579 0.565796H1.81054C1.24475 0.565796 0.792114 1.01843 0.792114 1.58422V11.6553V12.6737V27.1579V28.1763V65.6316V66.65V84.5289C0.792114 85.0947 1.24475 85.5474 1.81054 85.5474H8.03422H9.05264H61.5579C62.1237 85.5474 62.5763 85.0947 62.5763 84.5289V66.65V65.6316V28.0632V27.0447V20.2553V19.2368V12.4474V11.429V1.58422C62.5763 1.01843 62.1237 0.565796 61.5579 0.565796ZM2.7158 12.6737H8.03422V27.1579H2.7158V12.6737ZM9.05264 65.6316V28.0632H42.7737V65.6316H9.05264ZM9.05264 27.0447V20.2553H31.2316V27.0447H9.05264ZM2.7158 28.0632H8.03422V65.6316H2.7158V28.0632ZM2.7158 83.5105V66.65H8.03422V83.5105H2.7158ZM60.6526 83.5105H9.05264V66.65H60.6526V83.5105ZM60.6526 65.6316H43.7921V28.0632H60.6526V65.6316ZM60.6526 27.0447H32.1368V20.2553H60.5395V27.0447H60.6526ZM60.6526 19.35H9.05264V12.5605H60.6526V19.35ZM43.7921 11.6553V8.26053H42.7737V11.6553H9.05264V8.26053H8.03422V11.6553H2.7158V2.48948H60.5395V11.6553H43.7921Z" fill="#777777"/>
<path d="M31.6842 7.35529H12.4474V9.27897H31.6842V7.35529Z" fill="#777777"/>
<path d="M35.5316 34.8527H16.2948V35.8711H35.5316V34.8527Z" fill="#777777"/>
<path d="M27.8369 38.7H16.2948V39.7184H27.8369V38.7Z" fill="#777777"/>
<path d="M35.5316 42.5474H16.2948V43.5658H35.5316V42.5474Z" fill="#777777"/>
<path d="M35.5316 46.3948H16.2948V47.4132H35.5316V46.3948Z" fill="#777777"/>
<path d="M35.5316 54.0895H16.2948V55.1079H35.5316V54.0895Z" fill="#777777"/>
<path d="M31.6843 57.9368H16.2948V58.9552H31.6843V57.9368Z" fill="#777777"/>
<path d="M35.5316 50.2421H16.2948V51.2605H35.5316V50.2421Z" fill="#777777"/>
<path d="M35.5316 72.8737H16.2948V74.7974H35.5316V72.8737Z" fill="white"/>
<path d="M35.5316 76.7211H16.2948V78.6447H35.5316V76.7211Z" fill="white"/>
<path d="M54.7685 72.8737H47.0737V74.7974H54.7685V72.8737Z" fill="#777777"/>
<path d="M54.7685 76.7211H47.0737V78.6447H54.7685V76.7211Z" fill="#777777"/>
</svg>
