<svg width="18" height="22" viewBox="0 0 18 22" fill="none" xmlns="http://www.w3.org/2000/svg">
<path d="M17.1521 16.6427C16.8465 17.3486 16.4849 17.9983 16.0659 18.5956C15.4947 19.4099 15.0271 19.9736 14.6667 20.2866C14.108 20.8004 13.5094 21.0635 12.8684 21.0785C12.4083 21.0785 11.8533 20.9476 11.2073 20.6819C10.5592 20.4176 9.96364 20.2866 9.41905 20.2866C8.84789 20.2866 8.23532 20.4176 7.58013 20.6819C6.92392 20.9476 6.39529 21.086 5.99111 21.0997C5.37645 21.1259 4.76377 20.8553 4.15222 20.2866C3.76187 19.9462 3.27366 19.3625 2.68877 18.5357C2.06125 17.6528 1.54536 16.629 1.14118 15.4617C0.708322 14.201 0.491333 12.9801 0.491333 11.7981C0.491333 10.4442 0.783896 9.27645 1.36989 8.29789C1.83043 7.51187 2.44311 6.89183 3.20993 6.43666C3.97673 5.98148 4.80529 5.74952 5.69756 5.73469C6.18579 5.73469 6.82602 5.88571 7.62165 6.18251C8.41504 6.48031 8.92445 6.63132 9.14781 6.63132C9.31478 6.63132 9.88071 6.45473 10.8401 6.10269C11.7473 5.77622 12.513 5.64101 13.1403 5.69428C14.84 5.83145 16.117 6.5015 16.9663 7.70866C15.4461 8.62974 14.6941 9.91981 14.7091 11.5748C14.7228 12.8639 15.1904 13.9366 16.1095 14.7884C16.526 15.1837 16.9912 15.4892 17.5087 15.7062C17.3965 16.0317 17.278 16.3434 17.1521 16.6427ZM13.2538 1.30262C13.2538 2.31299 12.8846 3.25638 12.1489 4.12958C11.261 5.16764 10.187 5.76747 9.02235 5.67282C9.00676 5.5458 8.99892 5.41794 8.9989 5.28996C8.9989 4.32 9.42116 3.28194 10.171 2.4332C10.5454 2.00346 11.0215 1.64615 11.5989 1.36111C12.175 1.08032 12.72 0.925036 13.2326 0.898438C13.2475 1.0335 13.2538 1.16861 13.2538 1.30262Z" fill="white"/>
</svg>
