<svg width="40" height="32" viewBox="0 0 40 32" fill="none" xmlns="http://www.w3.org/2000/svg">
<path fill-rule="evenodd" clip-rule="evenodd" d="M2.34314 2.34314C2.38419e-07 4.6863 0 8.45752 0 16C0 23.5424 2.38419e-07 27.3138 2.34314 29.6568C4.6863 32 8.45752 32 16 32H24C31.5424 32 35.3138 32 37.6568 29.6568C40 27.3138 40 23.5424 40 16C40 8.45752 40 4.6863 37.6568 2.34314C35.3138 -2.38419e-07 31.5424 0 24 0H16C8.45752 0 4.6863 -2.38419e-07 2.34314 2.34314ZM33.1524 7.03972C33.6826 7.67614 33.5966 8.62198 32.9602 9.15234L28.5674 12.8132C26.7946 14.2904 25.3578 15.4878 24.0896 16.3034C22.7686 17.153 21.4822 17.6898 20 17.6898C18.5178 17.6898 17.2314 17.153 15.9104 16.3034C14.6422 15.4878 13.2054 14.2904 11.4327 12.8132L7.03972 9.15234C6.4033 8.62198 6.31732 7.67614 6.84766 7.03972C7.37802 6.4033 8.32386 6.31732 8.96028 6.84766L13.2781 10.4458C15.144 12.0008 16.4394 13.0768 17.5332 13.7802C18.5918 14.4612 19.3098 14.6898 20 14.6898C20.6902 14.6898 21.4082 14.4612 22.4668 13.7802C23.5606 13.0768 24.856 12.0008 26.722 10.4458L31.0398 6.84766C31.6762 6.31732 32.622 6.4033 33.1524 7.03972Z" fill="black"/>
</svg>
