<svg width="80" height="64" viewBox="0 0 80 64" fill="none" xmlns="http://www.w3.org/2000/svg">
<path fill-rule="evenodd" clip-rule="evenodd" d="M4.68628 4.68628C4.76837e-07 9.3726 0 16.915 0 32C0 47.0848 4.76837e-07 54.6276 4.68628 59.3136C9.3726 64 16.915 64 32 64H48C63.0848 64 70.6276 64 75.3136 59.3136C80 54.6276 80 47.0848 80 32C80 16.915 80 9.3726 75.3136 4.68628C70.6276 -4.76837e-07 63.0848 0 48 0H32C16.915 0 9.3726 -4.76837e-07 4.68628 4.68628ZM66.3048 14.0794C67.3652 15.3523 67.1932 17.244 65.9204 18.3047L57.1348 25.6264C53.5892 28.5808 50.7156 30.9756 48.1792 32.6068C45.5372 34.306 42.9644 35.3796 40 35.3796C37.0356 35.3796 34.4628 34.306 31.8207 32.6068C29.2845 30.9756 26.4108 28.5808 22.8654 25.6264L14.0794 18.3047C12.8066 17.244 12.6346 15.3523 13.6953 14.0794C14.756 12.8066 16.6477 12.6346 17.9206 13.6953L26.5561 20.8916C30.288 24.0016 32.8788 26.1536 35.0664 27.5604C37.1836 28.9224 38.6196 29.3796 40 29.3796C41.3804 29.3796 42.8164 28.9224 44.9336 27.5604C47.1212 26.1536 49.712 24.0016 53.444 20.8916L62.0796 13.6953C63.3524 12.6346 65.244 12.8066 66.3048 14.0794Z" fill="#E92B40"/>
</svg>
