<svg width="85" height="86" viewBox="0 0 85 86" fill="none" xmlns="http://www.w3.org/2000/svg">
<path d="M11.9 24.1H53.2V25H11.9V24.1ZM11.9 27.6H49.7V28.5H11.9V27.6ZM11.9 31H53.2V31.9H11.9V31ZM11.9 34.5H53.2V35.4H11.9V34.5ZM11.9 58.5H53.2V59.4H11.9V58.5ZM11.9 62H53.2V62.9H11.9V62ZM11.9 65.4H42.9V66.3H11.9V65.4ZM39.4 37.9H53.2V38.8H39.4V37.9ZM39.4 41.3H53.2V42.2H39.4V41.3ZM39.4 44.8H53.2V45.7H39.4V44.8ZM39.4 48.2H53.2V49.1H39.4V48.2ZM39.4 51.7H53.2V52.6H39.4V51.7ZM39.4 55.1H53.2V56H39.4V55.1Z" fill="#777777"/>
<path d="M59.8 17.4L43.1 0.8C42.9 0.6 42.7 0.5 42.5 0.5H5.90001C5.40001 0.5 5.00001 0.9 5.00001 1.4V38.4H3.30001C2.30001 38.4 1.60001 39.2 1.60001 40.1V53.9C1.60001 54.9 2.40001 55.6 3.30001 55.6H5.00001V75.4C5.00001 75.9 5.40001 76.3 5.90001 76.3H57.2C57.7 76.3 58.1 75.9 58.1 75.4L60.1 18.1C60 17.8 59.9 17.6 59.8 17.4ZM56.7 16.8H43.7V3.8L56.7 16.8ZM58.3 74.5H6.70001V55.5H34.2C35.2 55.5 35.9 54.7 35.9 53.8V40.1C35.9 39.1 35.1 38.4 34.2 38.4H6.70001V2.2H42V17.7C42 18.2 42.4 18.6 42.9 18.6H58.4L58.3 74.5ZM8.20001 50.6V43.2H11.7C15.3 43.2 15.3 48.4 11.7 48.4H9.60001V50.6H8.20001ZM15.8 50.6V43.2H18.7C21.2 43.2 22.4 45 22.4 46.8C22.4 48.7 21.3 50.6 18.7 50.6H15.8ZM29.1 46.6V47.9H25.4V50.6H24V43.2H29.3V44.5H25.4V46.5L29.1 46.6Z" fill="#777777"/>
<path d="M11.7 44.6H9.60001V47.2H11.7C13.5 47.2 13.4 44.6 11.7 44.6ZM18.7 44.6H17.2V49.3H18.7C20.4 49.3 21 48.1 21 46.9C21 45.7 20.3 44.6 18.7 44.6Z" fill="#777777"/>
<path d="M34.1 38.3H3.40001C2.40001 38.3 1.60001 39.1 1.60001 40.1V53.6C1.60001 54.6 2.40001 55.4 3.40001 55.4H34.1C35.1 55.4 35.9 54.6 35.9 53.6V40.2C35.9 39.2 35.1 38.3 34.1 38.3ZM11.7 48.5H9.60001V50.7H8.20001V43.3H11.7C15.3 43.2 15.3 48.4 11.7 48.5ZM18.7 50.6H15.8V43.2H18.7C21.2 43.2 22.4 45 22.4 46.8C22.4 48.7 21.3 50.6 18.7 50.6ZM29.3 44.6H25.4V46.6H29.1V47.9H25.4V50.6H24V43.2H29.3V44.6Z" fill="#FF2728"/>
<path d="M11.7 44.6H9.60001V47.2H11.7C13.5 47.2 13.4 44.6 11.7 44.6ZM18.7 44.6H17.2V49.3H18.7C20.4 49.3 21 48.1 21 46.9C21 45.7 20.3 44.6 18.7 44.6Z" fill="#FF2728"/>
<path d="M57.7 75C66.3157 75 73.3 68.0156 73.3 59.4C73.3 50.7843 66.3157 43.8 57.7 43.8C49.0844 43.8 42.1 50.7843 42.1 59.4C42.1 68.0156 49.0844 75 57.7 75Z" fill="#E9E9E9"/>
<path d="M66.7 58.8C66.2 58.8 65.9 59.2 65.9 59.6C65.9 60 66.3 60.4 66.7 60.4C67.1 60.4 67.5 60 67.5 59.6C67.5 59.2 67.2 58.8 66.7 58.8Z" fill="#777777"/>
<path d="M82.5 79.8L71.4 68.8C73.2 66.1 74.2 62.9 74.2 59.7C74.2 50.6 66.8 43.1 57.6 43.1C48.4 43.1 41 50.5 41 59.6C41 68.7 48.4 76.2 57.6 76.2C60.9 76.2 64 75.3 66.7 73.4L69.8 76.5L77.8 84.5C78.4 85.1 79.3 85.5 80.1 85.5C81 85.5 81.8 85.2 82.4 84.5C83 83.9 83.4 83 83.4 82.2C83.4 81.3 83.1 80.5 82.5 79.8ZM66.3 71.7C63.7 73.6 60.7 74.5 57.6 74.5C49.4 74.5 42.7 67.8 42.7 59.6C42.7 51.4 49.4 44.7 57.6 44.7C65.8 44.7 72.5 51.4 72.5 59.6C72.5 62.8 71.5 65.8 69.7 68.3C68.7 69.7 67.6 70.8 66.3 71.7ZM68.1 72.5C69 71.8 69.7 71 70.4 70.2L72.8 72.6C72.1 73.4 71.3 74.2 70.5 74.9L68.1 72.5ZM81.3 83.4C81 83.7 80.6 83.9 80.1 83.9C79.6 83.9 79.2 83.7 78.9 83.4L71.6 76C72.4 75.3 73.2 74.5 73.9 73.7L81.3 81.1C81.6 81.4 81.8 81.8 81.8 82.3C81.8 82.6 81.6 83 81.3 83.4Z" fill="#777777"/>
<path d="M57.6 46.4C50.3 46.4 44.3 52.3 44.3 59.7C44.3 67.1 50.2 73 57.6 73C65 73 70.9 67 70.9 59.6C70.9 52.3 64.9 46.4 57.6 46.4ZM57.6 71.2C51.2 71.2 46 66 46 59.6C46 53.2 51.2 48 57.6 48C64 48 69.2 53.2 69.2 59.6C69.2 66 64 71.2 57.6 71.2Z" fill="#777777"/>
<path d="M66.9 56.1C66.2 54.2 64.9 52.7 63.3 51.5C61.6 50.3 59.7 49.7 57.6 49.7C57.1 49.7 56.8 50.1 56.8 50.5C56.8 51 57.2 51.3 57.6 51.3C61 51.3 64.1 53.4 65.3 56.6C65.4 56.9 65.7 57.1 66.1 57.1C66.2 57.1 66.3 57.1 66.4 57C66.8 57 67 56.5 66.9 56.1Z" fill="#777777"/>
</svg>
